# AST/ASF file generated using VICON BodyLanguage
# -----------------------------------------------
:version 1.10
:name VICON
:units
  mass 1.0
  length 0.45
  angle deg
:documentation
   .ast/.asf automatically generated from VICON data using
   VICON BodyBuilder and BodyLanguage model FoxedUp or BRILLIANT.MOD
:root
   order TX TY TZ RX RY RZ
   axis XYZ
   position 0 0 0  
   orientation 0 0 0 
:bonedata
  begin
     id 1 
     name lhipjoint
     direction 0.612567 -0.751349 0.245431 
     length 2.42285 
     axis 0 0 0  XYZ
  end
  begin
     id 2 
     name lfemur
     direction 0.34202 -0.939693 0  
     length 7.11304  
     axis 0 0 20  XYZ
    dof rx ry rz
    limits (-160.0 20.0)
           (-70.0 70.0)
           (-60.0 70.0)
  end
  begin
     id 3 
     name ltibia
     direction 0.34202 -0.939693 0   
     length 7.84529   
     axis 0 0 20   XYZ
    dof rx
    limits (-10.0 170.0)
  end
  begin
     id 4 
     name lfoot
     direction 0.0779239 -0.214094 0.9737   
     length 1.97176   
     axis -90 7.62852e-016 20   XYZ
    dof rx rz
    limits (-45.0 90.0)
           (-70.0 20.0)
  end
  begin
     id 5 
     name ltoes
     direction 1.53565e-011 -4.21709e-011 1   
     length 0.993197   
     axis -90 7.62852e-016 20   XYZ
    dof rx
    limits (-90.0 20.0)
  end
  begin
     id 6 
     name rhipjoint
     direction -0.665722 -0.709315 0.231701   
     length 2.56642  
     axis 0 0 0  XYZ 
  end
  begin
     id 7 
     name rfemur
     direction -0.34202 -0.939693 0   
     length 7.32108   
     axis 0 0 -20   XYZ
    dof rx ry rz
    limits (-160.0 20.0)
           (-70.0 70.0)
           (-70.0 60.0)
  end
  begin
     id 8 
     name rtibia
     direction -0.34202 -0.939693 0   
     length 7.81254   
     axis 0 0 -20   XYZ
    dof rx
    limits (-10.0 170.0)
 end
 begin
     id 9 
     name rfoot
     direction -0.0832806 -0.228812 0.969902   
     length 2.08278  
     axis -90 -7.62852e-016 -20   XYZ
    dof rx rz
    limits (-45.0 90.0)
           (-20.0 70.0)
  end
  begin
     id 10 
     name rtoes
     direction -1.53589e-011 -4.22086e-011 1   
     length 1.04609   
     axis -90 -7.62852e-016 -20   XYZ
    dof rx
    limits (-90.0 20.0)
  end
  begin
     id 11 
     name lowerback
     direction -0.00506013 0.988403 -0.151766   
     length 2.01978   
     axis 0 0 0   XYZ
    dof rx ry rz
    limits (-20.0 45.0)
           (-30.0 30.0)
           (-30.0 30.0)
  end
  begin
     id 12 
     name upperback
     direction -0.00836389 0.99968 0.0238859   
     length 2.01276   
     axis 0 0 0   XYZ
    dof rx ry rz
    limits (-20.0 45.0)
           (-30.0 30.0)
           (-30.0 30.0)
  end
  begin
     id 13 
     name thorax
     direction -0.00684136 0.995386 0.0957043   
     length 2.07303   
     axis 0 0 0   XYZ
    dof rx ry rz
    limits (-20.0 45.0)
           (-30.0 30.0)
           (-30.0 30.0)
  end
  begin
     id 14 
     name lowerneck
     direction -0.0161045 0.999661 0.0204485   
     length 1.91243   
     axis 0 0 0   XYZ
    dof rx ry rz
    limits (-20.0 45.0)
           (-30.0 30.0)
           (-30.0 30.0)
  end
  begin
     id 15 
     name upperneck
     direction 0.0553583 0.990946 -0.122319   
     length 1.91574   
     axis 0 0 0   XYZ
    dof rx ry rz
    limits (-20.0 45.0)
           (-30.0 30.0)
           (-30.0 30.0)
  end
  begin
     id 16
     name head
     direction 0.0180273 0.998839 -0.0446756  
     length 1.92693  
     axis 0 0 0   XYZ
    dof rx ry rz
    limits (-20.0 45.0)
           (-30.0 30.0)
           (-30.0 30.0)
  end
  begin
     id 17 
     name lclavicle
     direction 0.945646 0.319323 -0.0615358  
     length 4.0076  
     axis 0 0 0   XYZ
    dof ry rz
    limits (-20.0 10.0)
           (0.0 20.0)
  end
  begin
     id 18 
     name lhumerus
     direction 1 -4.48967e-011 -2.79996e-027   
     length 5.64147   
     axis 180 -30 -90   XYZ
    dof rx ry rz
    limits (-60.0 90.0)
           (-90.0 90.0)
           (-90.0 90.0)
  end
  begin
     id 19
     name lradius
     direction 1 -4.48976e-011 -9.5122e-027   
     length 2.86444   
     axis 180 -30 -90   XYZ
    dof rx
    limits (-10.0 170.0)
  end
  begin
     id 20
     name lwrist
     direction 1 -4.48983e-011 -1.24047e-026   
     length 1.43222   
     axis 9.05591e-015 90 90   XYZ
    dof ry
    limits (-180.0 0.0)
 end
  begin
     id 21 
     name lhand
     direction 1 -4.4892e-011 -2.48094e-026   
     length 0.722123   
     axis 1.58305e-014 90 90   XYZ
    dof rx rz
    limits (-90.0 90.0)
           (-45.0 45.0)
  end
  begin
     id 22 
     name lfingers
     direction 1 -4.48895e-011 -4.96187e-026   
     length 0.582194   
     axis 3.1661e-014 90 90   XYZ
    dof rx
    limits (0.0 90.0)
  end
  begin
     id 23
     name lthumb
     direction 0.707107 -6.34961e-011 0.707107   
     length 0.835918   
     axis -90 45 2.85299e-015   XYZ
    dof rx rz
    limits (-45.0 45.0)
           (-45.0 45.0)
  end
  begin
     id 24 
     name rclavicle
     direction -0.932635 0.324218 -0.15835   
     length 3.65819  
     axis 0 0 0   XYZ 
    dof ry rz
    limits (-10.0 20.0)
           (-20.0 0.0)
  end
  begin
     id 25 
     name rhumerus
     direction -1 -4.48965e-011 -4.02296e-027  
     length 5.44729   
     axis 180 30 90   XYZ
    dof rx ry rz
    limits (-90.0 60.0)
           (-90.0 90.0)
           (-90.0 90.0)
  end
  begin
     id 26 
     name rradius
     direction -1 -4.48957e-011 -8.81087e-027   
     length 3.08821   
     axis 180 30 90   XYZ
    dof rx
    limits (-10.0 170.0)
  end
  begin
     id 27 
     name rwrist
     direction -1 -4.49015e-011 -1.24047e-026   
     length 1.5441   
     axis 9.05591e-015 -90 -90   XYZ
    dof ry
    limits (-180.0 0.0)
  end
  begin
     id 28
     name rhand
     direction -1 -4.4891e-011 -2.48094e-026   
     length 0.821049   
     axis 1.58305e-014 -90 -90   XYZ
    dof rx rz
    limits (-90.0 90.0)
           (-45.0 45.0)
  end
  begin
     id 29
     name rfingers
     direction -1 -4.48985e-011 -4.96187e-026   
     length 0.661951   
     axis 3.1661e-014 -90 -90   XYZ
    dof rx
    limits (0.0 90.0)
  end
  begin
     id 30
     name rthumb
     direction -0.707107 -6.34906e-011 0.707107   
     length 0.950433   
     axis -90 -45 -2.85299e-015   XYZ
    dof rx rz
    limits (-45.0 45.0)
           (-45.0 45.0)
  end
:hierarchy
  begin
    root lhipjoint rhipjoint lowerback
    lhipjoint lfemur
    lfemur ltibia
    ltibia lfoot
    lfoot ltoes
    rhipjoint rfemur
    rfemur rtibia
    rtibia rfoot
    rfoot rtoes
    lowerback upperback
    upperback thorax
    thorax lowerneck lclavicle rclavicle
    lowerneck upperneck
    upperneck head
    lclavicle lhumerus
    lhumerus lradius
    lradius lwrist
    lwrist lhand lthumb
    lhand lfingers
    rclavicle rhumerus
    rhumerus rradius
    rradius rwrist
    rwrist rhand rthumb
    rhand rfingers
  end

#!OML:ASF F:\VICON\USERDATA\INSTALL\rory3\rory3.ASF
:FULLY-SPECIFIED
:DEGREES
728
root 3.28166 17.659 0.257364 -160.976 88.2903 -158.1
lowerback 7.48847 0.10369 4.31315
upperback -1.67027 0.418903 -2.58808
thorax -5.91415 0.00844801 -5.20793
lowerneck -8.06068 -6.17408 -6.3741
upperneck 8.8393 -8.58923 10.3931
head 4.70145 -3.84481 3.66059
rclavicle -1.69961e-014 2.62396e-014
rhumerus -82.5047 40.1958 -104.218
rradius 88.7988
rwrist -58.7921
rhand 25.5966 11.5996
rfingers 7.12502
rthumb 49.7083 -9.77497
lclavicle -1.69961e-014 2.62396e-014
lhumerus -3.26415 31.8549 16.1071
lradius 94.547
lwrist 7.6239
lhand -3.00307 39.4823
lfingers 7.12502
lthumb 22.711 68.1658
rfemur 3.68197 5.56566 20.1247
rtibia 14.179
rfoot -21.4336 -12.4548
rtoes -5.50582
lfemur 1.91504 0.749646 -15.0929
ltibia 11.4508
lfoot -10.5055 -2.95462
ltoes -4.47019
729
root 3.27883 17.6587 0.25716 -161.307 88.2575 -158.421
lowerback 7.49791 0.09103 4.31987
upperback -1.64108 0.402905 -2.58646
thorax -5.89059 0.00166662 -5.20776
lowerneck -8.10565 -6.1681 -6.32469
upperneck 8.8092 -8.57874 10.3532
head 4.69502 -3.83976 3.64
rclavicle 8.59744e-015 -1.59028e-015
rhumerus -82.4069 40.2083 -104.134
rradius 88.8034
rwrist -58.7094
rhand 25.6925 11.644
rfingers 7.12502
rthumb 49.7962 -9.6851
lclavicle 8.59744e-015 -1.59028e-015
lhumerus -3.29226 31.7938 16.1689
lradius 94.5306
lwrist 7.70857
lhand -3.03146 39.6057
lfingers 7.12502
lthumb 22.6838 68.2925
rfemur 3.68459 5.53148 20.1292
rtibia 14.1796
rfoot -21.4359 -12.4731
rtoes -5.64519
lfemur 1.89841 0.714603 -15.0922
ltibia 11.4645
lfoot -10.4696 -2.94522
ltoes -4.49384
730
root 3.27752 17.6594 0.256719 -164.481 88.2747 -161.595
lowerback 7.51138 0.102651 4.22998
upperback -1.62957 0.409206 -2.61297
thorax -5.88538 0.00810897 -5.18543
lowerneck -8.08569 -6.18174 -6.3181
upperneck 8.74238 -8.59336 10.3497
head 4.67211 -3.84917 3.63754
rclavicle 8.59744e-015 -1.98785e-014
rhumerus -82.3125 40.1736 -104.036
rradius 88.8185
rwrist -58.6597
rhand 25.7428 11.5357
rfingers 7.12502
rthumb 49.8422 -9.76951
lclavicle 8.59744e-015 -1.98785e-014
lhumerus -3.27095 31.7854 16.2487
lradius 94.5118
lwrist 7.79304
lhand -2.86558 39.6887
lfingers 7.12502
lthumb 22.843 68.356
rfemur 3.65823 5.52179 20.0147
rtibia 14.2133
rfoot -21.4486 -12.441
rtoes -5.67931
lfemur 1.90374 0.70256 -15.2023
ltibia 11.4373
lfoot -10.4036 -2.94555
ltoes -4.096
731
root 3.27722 17.6593 0.255552 -165.509 88.2991 -162.616
lowerback 7.5033 0.110329 4.19966
upperback -1.62416 0.41602 -2.61978
thorax -5.87424 0.0129428 -5.17594
lowerneck -8.03815 -6.17061 -6.38314
upperneck 8.70893 -8.57781 10.4273
head 4.65892 -3.84145 3.67493
rclavicle -1.26974e-014 3.26007e-014
rhumerus -82.2944 40.173 -104.012
rradius 88.8238
rwrist -58.6179
rhand 25.7969 11.479
rfingers 7.12502
rthumb 49.8918 -9.80041
lclavicle -1.26974e-014 3.26007e-014
lhumerus -3.28401 31.7597 16.2858
lradius 94.467
lwrist 7.8522
lhand -2.92289 39.6681
lfingers 7.12502
lthumb 22.788 68.3421
rfemur 3.63617 5.53914 19.9663
rtibia 14.2775
rfoot -21.5108 -12.3641
rtoes -5.27048
lfemur 1.9493 0.717504 -15.2496
ltibia 11.3771
lfoot -10.361 -2.96907
ltoes -3.92014
732
root 3.27495 17.6596 0.257241 -166.342 88.3215 -163.456
lowerback 7.5104 0.103463 4.14177
upperback -1.63181 0.40139 -2.62466
thorax -5.88825 0.00717987 -5.14652
lowerneck -8.00497 -6.14687 -6.38963
upperneck 8.69789 -8.54926 10.4692
head 4.6497 -3.82637 3.69236
rclavicle -3.72721e-016 5.56597e-015
rhumerus -82.3335 40.2104 -104.072
rradius 88.8365
rwrist -58.5642
rhand 25.8557 11.4849
rfingers 7.12502
rthumb 49.9456 -9.76636
lclavicle -3.72721e-016 5.56597e-015
lhumerus -3.32974 31.766 16.2892
lradius 94.4314
lwrist 7.77435
lhand -2.94023 39.568
lfingers 7.12502
lthumb 22.7713 68.2441
rfemur 3.58324 5.55547 19.9393
rtibia 14.3369
rfoot -21.5681 -12.2874
rtoes -4.64546
lfemur 1.96794 0.73392 -15.2703
ltibia 11.3012
lfoot -10.3135 -2.99899
ltoes -3.62572
733
root 3.27212 17.6594 0.259405 -164.993 88.3169 -162.131
lowerback 7.50914 0.0993308 4.14159
upperback -1.63129 0.396985 -2.59772
thorax -5.88758 0.00541969 -5.11716
lowerneck -7.95089 -6.14471 -6.36639
upperneck 8.5881 -8.5401 10.4442
head 4.6042 -3.82698 3.68363
rclavicle -6.60959e-015 3.18055e-015
rhumerus -82.3432 40.2471 -104.081
rradius 88.8344
rwrist -58.5443
rhand 25.8422 11.555
rfingers 7.12502
rthumb 49.9333 -9.70273
lclavicle -6.60959e-015 3.18055e-015
lhumerus -3.31116 31.8359 16.3405
lradius 94.3373
lwrist 7.78673
lhand -2.87603 39.5594
lfingers 7.12502
lthumb 22.8329 68.2278
rfemur 3.53651 5.55936 19.9954
rtibia 14.3525
rfoot -21.5727 -12.3054
rtoes -4.79101
lfemur 1.94655 0.741405 -15.2163
ltibia 11.2648
lfoot -10.2826 -2.97996
ltoes -3.64192
734
root 3.27142 17.6609 0.257802 -166.643 88.2858 -163.795
lowerback 7.48453 0.0853451 4.14206
upperback -1.61572 0.376323 -2.62358
thorax -5.85948 -0.00401535 -5.14172
lowerneck -7.99756 -6.16239 -6.35665
upperneck 8.6084 -8.56454 10.4384
head 4.61972 -3.83706 3.67687
rclavicle 5.29264e-015 -1.03368e-014
rhumerus -82.3134 40.249 -104.097
rradius 88.8173
rwrist -58.5652
rhand 25.7536 11.6506
rfingers 7.12502
rthumb 49.8522 -9.64937
lclavicle 5.29264e-015 -1.03368e-014
lhumerus -3.27214 31.8252 16.3158
lradius 94.2536
lwrist 7.82631
lhand -2.86227 39.4728
lfingers 7.12502
lthumb 22.8461 68.1397
rfemur 3.5289 5.51839 19.9368
rtibia 14.3585
rfoot -21.5798 -12.3381
rtoes -5.00566
lfemur 1.94338 0.700243 -15.2733
ltibia 11.2274
lfoot -10.2765 -2.96898
ltoes -3.74306
735
root 3.27295 17.6603 0.25683 -167.555 88.24 -164.698
lowerback 7.43568 0.0654392 4.13898
upperback -1.58028 0.347382 -2.63104
thorax -5.7976 -0.0157357 -5.14291
lowerneck -8.03209 -6.17727 -6.36047
upperneck 8.59038 -8.58236 10.4442
head 4.62205 -3.84504 3.67695
rclavicle -1.30204e-014 1.27222e-014
rhumerus -82.3121 40.2751 -104.11
rradius 88.8085
rwrist -58.6101
rhand 25.7045 11.6185
rfingers 7.12502
rthumb 49.8072 -9.70489
lclavicle -1.30204e-014 1.27222e-014
lhumerus -3.28825 31.8124 16.2468
lradius 94.2398
lwrist 7.87732
lhand -2.78382 39.5027
lfingers 7.12502
lthumb 22.9214 68.1602
rfemur 3.55877 5.46848 19.9084
rtibia 14.3632
rfoot -21.6052 -12.3066
rtoes -4.89611
lfemur 1.99097 0.648892 -15.2965
ltibia 11.1755
lfoot -10.2391 -2.95905
ltoes -3.60324
736
root 3.2727 17.6607 0.258696 -167.898 88.218 -165.017
lowerback 7.41825 0.0648669 4.11084
upperback -1.53357 0.343629 -2.62461
thorax -5.73875 -0.0137682 -5.11848
lowerneck -8.08561 -6.21032 -6.39981
upperneck 8.55683 -8.62195 10.4795
head 4.62765 -3.86304 3.68966
rclavicle 3.70236e-015 7.15625e-015
rhumerus -82.2582 40.2815 -104.076
rradius 88.8248
rwrist -58.6883
rhand 25.651 11.5244
rfingers 7.12502
rthumb 49.7582 -9.82442
lclavicle 3.70236e-015 7.15625e-015
lhumerus -3.26107 31.8589 16.2656
lradius 94.224
lwrist 7.88587
lhand -2.68338 39.5019
lfingers 7.12502
lthumb 23.0178 68.1474
rfemur 3.60241 5.44322 19.9209
rtibia 14.3488
rfoot -21.6249 -12.2771
rtoes -4.7509
lfemur 2.02631 0.623651 -15.2905
ltibia 11.1486
lfoot -10.2287 -2.95516
ltoes -3.931
737
root 3.27115 17.661 0.258392 -170.081 88.224 -167.201
lowerback 7.41623 0.0698865 4.03504
upperback -1.51114 0.342847 -2.63343
thorax -5.71404 -0.0103848 -5.08405
lowerneck -8.07419 -6.21762 -6.43492
upperneck 8.48471 -8.62569 10.508
head 4.60694 -3.86663 3.70458
rclavicle -3.45388e-015 1.35174e-014
rhumerus -82.2202 40.2855 -104.039
rradius 88.8001
rwrist -58.7343
rhand 25.5926 11.5427
rfingers 7.12502
rthumb 49.7046 -9.83376
lclavicle -3.45388e-015 1.35174e-014
lhumerus -3.26689 31.8352 16.255
lradius 94.2388
lwrist 7.94735
lhand -2.76797 39.569
lfingers 7.12502
lthumb 22.9366 68.2247
rfemur 3.62458 5.43646 19.8449
rtibia 14.3121
rfoot -21.6428 -12.2119
rtoes -4.44981
lfemur 2.00231 0.61644 -15.3635
ltibia 11.1722
lfoot -10.2735 -2.93364
ltoes -4.04472
738
root 3.26992 17.6608 0.258232 -166.966 88.2053 -164.068
lowerback 7.45251 0.071302 4.13778
upperback -1.50164 0.35657 -2.60794
thorax -5.72298 -0.00694611 -5.11778
lowerneck -8.06259 -6.22937 -6.41431
upperneck 8.46046 -8.63967 10.4784
head 4.59656 -3.8755 3.69135
rclavicle -3.97569e-015 -8.74653e-015
rhumerus -82.1831 40.2787 -104.021
rradius 88.7456
rwrist -58.7678
rhand 25.6174 11.6102
rfingers 7.12502
rthumb 49.7274 -9.75448
lclavicle -3.97569e-015 -8.74653e-015
lhumerus -3.21621 31.815 16.2473
lradius 94.2287
lwrist 7.95316
lhand -2.7223 39.5351
lfingers 7.12502
lthumb 22.9805 68.1853
rfemur 3.6522 5.4367 19.9536
rtibia 14.2782
rfoot -21.5739 -12.2853
rtoes -4.77483
lfemur 1.99704 0.616295 -15.252
ltibia 11.2164
lfoot -10.314 -2.91266
ltoes -4.11506
739
root 3.26844 17.66 0.259471 -164.614 88.2082 -161.686
lowerback 7.52601 0.0710807 4.19633
upperback -1.50696 0.365063 -2.58946
thorax -5.76946 -0.00605489 -5.13399
lowerneck -8.00106 -6.23636 -6.38528
upperneck 8.40383 -8.6455 10.4275
head 4.56581 -3.88366 3.67242
rclavicle -9.98893e-015 1.90833e-014
rhumerus -82.2017 40.2613 -104.013
rradius 88.7515
rwrist -58.7682
rhand 25.7117 11.6112
rfingers 7.12502
rthumb 49.8138 -9.70873
lclavicle -9.98893e-015 1.90833e-014
lhumerus -3.21533 31.7607 16.1703
lradius 94.2433
lwrist 8.03305
lhand -2.6475 39.5971
lfingers 7.12502
lthumb 23.0522 68.2383
rfemur 3.67918 5.45703 20.0374
rtibia 14.2472
rfoot -21.522 -12.364
rtoes -5.29505
lfemur 2.00222 0.634967 -15.1663
ltibia 11.2675
lfoot -10.3356 -2.93718
ltoes -4.2281
740
root 3.26576 17.6593 0.260652 -163.222 88.2052 -160.293
lowerback 7.55241 0.0675906 4.21962
upperback -1.50058 0.36416 -2.57413
thorax -5.77788 -0.00723113 -5.13124
lowerneck -8.05367 -6.24007 -6.38863
upperneck 8.44842 -8.65129 10.4238
head 4.58872 -3.8842 3.6696
rclavicle -6.5102e-015 1.19271e-014
rhumerus -82.1694 40.2654 -103.964
rradius 88.75
rwrist -58.7171
rhand 25.7484 11.6402
rfingers 7.12502
rthumb 49.8474 -9.66227
lclavicle -6.5102e-015 1.19271e-014
lhumerus -3.20191 31.7962 16.1535
lradius 94.2335
lwrist 8.01197
lhand -2.69486 39.5459
lfingers 7.12502
lthumb 23.0068 68.1928
rfemur 3.67912 5.46462 20.0975
rtibia 14.2163
rfoot -21.5605 -12.3015
rtoes -4.81353
lfemur 1.9594 0.64399 -15.1185
ltibia 11.3365
lfoot -10.3455 -2.95771
ltoes -4.2387
741
root 3.26565 17.6601 0.260856 -164.233 88.2059 -161.314
lowerback 7.53993 0.0587401 4.16534
upperback -1.49437 0.347071 -2.5668
thorax -5.76631 -0.0131756 -5.09003
lowerneck -8.05981 -6.23561 -6.43002
upperneck 8.44661 -8.64344 10.4561
head 4.59181 -3.87981 3.68679
rclavicle 1.76421e-015 3.18055e-014
rhumerus -82.1272 40.2598 -103.9
rradius 88.7292
rwrist -58.7218
rhand 25.8358 11.635
rfingers 7.12502
rthumb 49.9274 -9.62581
lclavicle 1.76421e-015 3.18055e-014
lhumerus -3.18717 31.8436 16.1409
lradius 94.2218
lwrist 8.00647
lhand -2.7436 39.4711
lfingers 7.12502
lthumb 22.96 68.1239
rfemur 3.6724 5.45639 20.065
rtibia 14.2126
rfoot -21.5603 -12.2514
rtoes -4.88302
lfemur 1.93269 0.6365 -15.1524
ltibia 11.364
lfoot -10.3398 -2.96901
ltoes -3.85883
742
root 3.26563 17.6589 0.260773 -165.407 88.2009 -162.479
lowerback 7.54462 0.0545254 4.113
upperback -1.48453 0.336812 -2.56299
thorax -5.75986 -0.0159377 -5.05474
lowerneck -8.09919 -6.2369 -6.49794
upperneck 8.50963 -8.6463 10.5108
head 4.62335 -3.87764 3.71302
rclavicle -5.34234e-015 -8.74653e-015
rhumerus -82.1136 40.2291 -103.825
rradius 88.7322
rwrist -58.6831
rhand 25.8736 11.5815
rfingers 7.12502
rthumb 49.962 -9.66119
lclavicle -5.34234e-015 -8.74653e-015
lhumerus -3.16409 31.8622 16.0987
lradius 94.2136
lwrist 8.04672
lhand -2.69853 39.4339
lfingers 7.12502
lthumb 23.0033 68.0812
rfemur 3.67717 5.44271 20.0254
rtibia 14.2238
rfoot -21.5104 -12.3276
rtoes -5.20289
lfemur 1.93524 0.621242 -15.1876
ltibia 11.3665
lfoot -10.3328 -2.97402
ltoes -3.57462
